<?xml version="1.0" encoding="UTF-8" standalone="no"?>
<svg xmlns="http://www.w3.org/2000/svg" width="2500" height="918" viewBox="0 0 634.105 232.822">
  <path fill="#0071B9" d="M373.462 232.822s-19.3-15.78-37.329-15.78h-59.309c-17.857 0-37.328 15.78-37.328 15.78s-74.919-8.76-106.926-8.76c-32.181 0-50.038-15.609-50.038-48.479s17.857-48.307 50.038-48.307c32.006 0 106.926-8.76 106.926-8.76s19.472 15.781 37.328 15.781h59.309c17.856 0 37.329-15.781 37.329-15.781s74.919 8.76 106.925 8.76c32.007 0 50.038 15.437 50.038 48.307s-18.031 48.479-50.038 48.479c-32.006.001-106.925 8.76-106.925 8.76"/>
  <path fill="#FFCB05" d="M111.804 156.998c0 14.774 11.874 26.648 26.648 26.648 14.774 0 26.648-11.874 26.648-26.648 0-14.774-11.874-26.648-26.648-26.648-14.774 0-26.648 11.874-26.648 26.648M151.153 156.998c0 7.058-5.644 12.702-12.702 12.702-7.058 0-12.702-5.644-12.702-12.702 0-7.058 5.644-12.702 12.702-12.702 7.058 0 12.702 5.644 12.702 12.702M373.462 156.998c0 14.774 11.874 26.648 26.648 26.648 14.774 0 26.648-11.874 26.648-26.648 0-14.774-11.874-26.648-26.648-26.648-14.774 0-26.648 11.874-26.648 26.648M412.811 156.998c0 7.058-5.644 12.702-12.702 12.702-7.058 0-12.702-5.644-12.702-12.702 0-7.058 5.644-12.702 12.702-12.702 7.058 0 12.702 5.644 12.702 12.702M204.921 77.863c15.33 0 29.848 2.406 43.253 6.758-3.655 2.941-6.758 6.082-9.335 9.676-10.797-2.772-22.106-4.352-33.918-4.352-36.828 0-69.009 13.325-88.309 33.235h-.171v-12.702c0-17.856 39.735-32.615 88.48-32.615M204.921 236.134c-48.745 0-88.48-14.759-88.48-32.615v-12.702h.171c19.3 19.909 51.481 33.235 88.309 33.235 11.812 0 23.121-1.58 33.918-4.352 2.577 3.594 5.68 6.735 9.335 9.676-13.405 4.352-27.923 6.758-43.253 6.758M429.184 77.863c15.33 0 29.848 2.406 43.253 6.758-3.655 2.941-6.758 6.082-9.335 9.676-10.797-2.772-22.106-4.352-33.918-4.352-36.828 0-69.009 13.325-88.309 33.235h-.171v-12.702c0-17.856 39.735-32.615 88.48-32.615M429.184 236.134c-48.745 0-88.48-14.759-88.48-32.615v-12.702h.171c19.3 19.909 51.481 33.235 88.309 33.235 11.812 0 23.121-1.58 33.918-4.352 2.577 3.594 5.68 6.735 9.335 9.676-13.405 4.352-27.923 6.758-43.253 6.758M373.462 91.017s-19.3-15.78-37.329-15.78h-59.309c-17.857 0-37.328 15.78-37.328 15.78s-3.082-.342-8.418-.855c-1.709-4.437-2.748-9.163-2.748-14.088 0-21.879 17.686-39.564 39.564-39.564h77.17c21.879 0 39.564 17.685 39.564 39.564 0 4.925-1.039 9.651-2.748 14.088-5.336.513-8.418.855-8.418.855"/>
  <path fill="#0071B9" d="M277.496 41.01c-21.879 0-39.564 17.685-39.564 39.564 0 4.925 1.039 9.651 2.748 14.088-5.336.513-8.418.855-8.418.855s-19.3-15.78-37.329-15.78h-59.309c-17.857 0-37.328 15.78-37.328 15.78s-74.919-8.76-106.926-8.76C-40.811 86.757-58.668 71.148-58.668 38.278S-40.811-10.029-8.63-10.029c32.006 0 106.926-8.76 106.926-8.76s19.472 15.781 37.328 15.781h59.309c17.856 0 37.329-15.781 37.329-15.781s74.919 8.76 106.925 8.76c32.007 0 50.038 15.437 50.038 48.307 0 32.87-18.031 48.479-50.038 48.479-32.006 0-106.925 8.76-106.925 8.76s-3.082-.342-8.418-.855c-1.709-4.437-2.748-9.163-2.748-14.088 0-21.879 17.686-39.564 39.564-39.564h77.17"/>
  <path fill="#FFCB05" d="M111.804 38.278c0 14.774 11.874 26.648 26.648 26.648 14.774 0 26.648-11.874 26.648-26.648 0-14.774-11.874-26.648-26.648-26.648-14.774 0-26.648 11.874-26.648 26.648M151.153 38.278c0 7.058-5.644 12.702-12.702 12.702-7.058 0-12.702-5.644-12.702-12.702 0-7.058 5.644-12.702 12.702-12.702 7.058 0 12.702 5.644 12.702 12.702M373.462 38.278c0 14.774 11.874 26.648 26.648 26.648 14.774 0 26.648-11.874 26.648-26.648 0-14.774-11.874-26.648-26.648-26.648-14.774 0-26.648 11.874-26.648 26.648M412.811 38.278c0 7.058-5.644 12.702-12.702 12.702-7.058 0-12.702-5.644-12.702-12.702 0-7.058 5.644-12.702 12.702-12.702 7.058 0 12.702 5.644 12.702 12.702"/>
</svg>
