<svg xmlns="http://www.w3.org/2000/svg" xmlns:xlink="http://www.w3.org/1999/xlink" width="512" height="512" version="1.1" viewBox="0 0 512 512"><title>Pokeball</title><g id="Page-1" fill="none" fill-rule="evenodd" stroke="none" stroke-width="1"><g id="Pokeball"><circle id="Oval" cx="256" cy="256" r="256" fill="#FFF"/><path id="Shape" fill="#E20000" fill-rule="nonzero" d="M256,0 C114.844,0 0,114.844 0,256 C0,397.156 114.844,512 256,512 C397.156,512 512,397.156 512,256 C512,114.844 397.156,0 256,0 Z M256,42.667 C373.504,42.667 469.333,138.496 469.333,256 C469.333,373.504 373.504,469.333 256,469.333 C138.496,469.333 42.667,373.504 42.667,256 C42.667,138.496 138.496,42.667 256,42.667 Z"/><path id="Path" fill="#E20000" d="M256,149.333 C197.099,149.333 149.333,197.099 149.333,256 L362.667,256 C362.667,197.099 314.901,149.333 256,149.333 Z"/><path id="Path" fill="#FFF" d="M256,362.667 C314.901,362.667 362.667,314.901 362.667,256 L149.333,256 C149.333,314.901 197.099,362.667 256,362.667 Z"/><circle id="Oval" cx="256" cy="256" r="42.667" fill="#FFF" stroke="#E20000" stroke-width="10"/><circle id="Oval" cx="256" cy="256" r="21.333" fill="#E20000"/></g></g></svg>